<mxfile host="app.diagrams.net" modified="2021-04-07T21:45:49.190Z" agent="5.0 (X11; Linux x86_64) AppleWebKit/537.36 (KHTML, like Gecko) Chrome/89.0.4389.90 Safari/537.36" etag="IiZVB1sStbza9XkKxwK1" version="14.5.4" type="gitlab">
  <diagram id="C5RBs43oDa-KdzZeNtuy" name="Page-1">
    <mxGraphModel dx="4498" dy="5075" grid="1" gridSize="10" guides="1" tooltips="1" connect="1" arrows="1" fold="1" page="1" pageScale="1" pageWidth="827" pageHeight="1169" math="0" shadow="0">
      <root>
        <mxCell id="WIyWlLk6GJQsqaUBKTNV-0" />
        <mxCell id="WIyWlLk6GJQsqaUBKTNV-1" parent="WIyWlLk6GJQsqaUBKTNV-0" />
        <mxCell id="9AQbZe1i3s5QTkBOKTHU-3" value="&lt;font style=&quot;font-size: 24px&quot;&gt;API PROVIDER&lt;/font&gt;" style="rounded=1;whiteSpace=wrap;html=1;dashed=1;fillColor=#f8cecc;labelPosition=center;verticalLabelPosition=top;align=center;verticalAlign=bottom;strokeWidth=5;strokeColor=#b85450;" parent="WIyWlLk6GJQsqaUBKTNV-1" vertex="1">
          <mxGeometry x="-110.62" y="-2330" width="1390.62" height="1620" as="geometry" />
        </mxCell>
        <mxCell id="9AQbZe1i3s5QTkBOKTHU-0" value="&lt;font style=&quot;font-size: 24px&quot;&gt;API CONSUMER&lt;/font&gt;" style="rounded=1;whiteSpace=wrap;html=1;dashed=1;fillColor=#d5e8d4;labelPosition=center;verticalLabelPosition=top;align=center;verticalAlign=bottom;strokeWidth=5;strokeColor=#82b366;" parent="WIyWlLk6GJQsqaUBKTNV-1" vertex="1">
          <mxGeometry x="-1320" y="-2330" width="660" height="1590" as="geometry" />
        </mxCell>
        <mxCell id="9AQbZe1i3s5QTkBOKTHU-36" value="ENDPOINTS" style="rounded=1;whiteSpace=wrap;html=1;dashed=1;fillColor=none;labelPosition=center;verticalLabelPosition=top;align=center;verticalAlign=bottom;strokeWidth=5;" parent="WIyWlLk6GJQsqaUBKTNV-1" vertex="1">
          <mxGeometry x="-30" y="-2270" width="240.62" height="1490" as="geometry" />
        </mxCell>
        <mxCell id="9AQbZe1i3s5QTkBOKTHU-37" value="SERVICES" style="rounded=1;whiteSpace=wrap;html=1;dashed=1;fillColor=none;labelPosition=center;verticalLabelPosition=top;align=center;verticalAlign=bottom;strokeWidth=5;" parent="WIyWlLk6GJQsqaUBKTNV-1" vertex="1">
          <mxGeometry x="770" y="-2270" width="320" height="1490" as="geometry" />
        </mxCell>
        <mxCell id="9AQbZe1i3s5QTkBOKTHU-38" value="PROCESSES" style="rounded=1;whiteSpace=wrap;html=1;dashed=1;fillColor=none;labelPosition=center;verticalLabelPosition=top;align=center;verticalAlign=bottom;strokeWidth=5;" parent="WIyWlLk6GJQsqaUBKTNV-1" vertex="1">
          <mxGeometry x="310" y="-2270" width="320" height="1490" as="geometry" />
        </mxCell>
        <mxCell id="9AQbZe1i3s5QTkBOKTHU-49" style="edgeStyle=orthogonalEdgeStyle;rounded=0;orthogonalLoop=1;jettySize=auto;html=1;exitX=1;exitY=0.5;exitDx=0;exitDy=0;entryX=0;entryY=0.5;entryDx=0;entryDy=0;" parent="WIyWlLk6GJQsqaUBKTNV-1" source="9AQbZe1i3s5QTkBOKTHU-32" target="9AQbZe1i3s5QTkBOKTHU-48" edge="1">
          <mxGeometry relative="1" as="geometry" />
        </mxCell>
        <mxCell id="9AQbZe1i3s5QTkBOKTHU-118" style="edgeStyle=orthogonalEdgeStyle;rounded=0;orthogonalLoop=1;jettySize=auto;html=1;exitX=0.5;exitY=1;exitDx=0;exitDy=0;startArrow=none;startFill=0;endArrow=classic;endFill=1;strokeColor=#000000;dashed=1;entryX=1;entryY=0.5;entryDx=0;entryDy=0;" parent="WIyWlLk6GJQsqaUBKTNV-1" source="9AQbZe1i3s5QTkBOKTHU-32" target="9AQbZe1i3s5QTkBOKTHU-43" edge="1">
          <mxGeometry relative="1" as="geometry">
            <Array as="points">
              <mxPoint x="90" y="-2002" />
            </Array>
            <mxPoint x="-160" y="-1850" as="targetPoint" />
          </mxGeometry>
        </mxCell>
        <mxCell id="9AQbZe1i3s5QTkBOKTHU-32" value="&lt;b&gt;&lt;font style=&quot;font-size: 16px&quot;&gt;/register&lt;/font&gt;&lt;/b&gt;" style="whiteSpace=wrap;html=1;aspect=fixed;" parent="WIyWlLk6GJQsqaUBKTNV-1" vertex="1">
          <mxGeometry x="30.310000000000002" y="-2235" width="120" height="120" as="geometry" />
        </mxCell>
        <mxCell id="9AQbZe1i3s5QTkBOKTHU-119" style="edgeStyle=orthogonalEdgeStyle;rounded=0;orthogonalLoop=1;jettySize=auto;html=1;exitX=0.5;exitY=1;exitDx=0;exitDy=0;entryX=1;entryY=0.5;entryDx=0;entryDy=0;dashed=1;startArrow=none;startFill=0;endArrow=classic;endFill=1;strokeColor=#000000;" parent="WIyWlLk6GJQsqaUBKTNV-1" source="9AQbZe1i3s5QTkBOKTHU-39" target="9AQbZe1i3s5QTkBOKTHU-43" edge="1">
          <mxGeometry relative="1" as="geometry" />
        </mxCell>
        <mxCell id="9AQbZe1i3s5QTkBOKTHU-39" value="&lt;b&gt;&lt;font style=&quot;font-size: 16px&quot;&gt;cardano-wallet&lt;br&gt;(balance custody)&lt;br&gt;&lt;/font&gt;&lt;/b&gt;" style="whiteSpace=wrap;html=1;aspect=fixed;" parent="WIyWlLk6GJQsqaUBKTNV-1" vertex="1">
          <mxGeometry x="855" y="-2065" width="150" height="150" as="geometry" />
        </mxCell>
        <mxCell id="9AQbZe1i3s5QTkBOKTHU-54" style="edgeStyle=orthogonalEdgeStyle;rounded=0;orthogonalLoop=1;jettySize=auto;html=1;exitX=1;exitY=0.5;exitDx=0;exitDy=0;entryX=0.5;entryY=0;entryDx=0;entryDy=0;dashed=1;" parent="WIyWlLk6GJQsqaUBKTNV-1" source="9AQbZe1i3s5QTkBOKTHU-41" target="9AQbZe1i3s5QTkBOKTHU-39" edge="1">
          <mxGeometry relative="1" as="geometry" />
        </mxCell>
        <UserObject label="&lt;b&gt;&lt;font style=&quot;font-size: 16px&quot;&gt;forge-token:&lt;br&gt;&lt;div style=&quot;text-align: left&quot;&gt;&lt;b style=&quot;font-size: 12px&quot;&gt;&lt;font style=&quot;font-size: 16px&quot;&gt;- on demand&lt;/font&gt;&lt;/b&gt;&lt;/div&gt;&lt;div style=&quot;text-align: left&quot;&gt;&lt;b style=&quot;font-size: 12px&quot;&gt;&lt;font style=&quot;font-size: 16px&quot;&gt;- cli to build tx&lt;/font&gt;&lt;/b&gt;&lt;/div&gt;&lt;div style=&quot;text-align: left&quot;&gt;&lt;b style=&quot;font-size: 12px&quot;&gt;&lt;font style=&quot;font-size: 16px&quot;&gt;- add metadata&lt;/font&gt;&lt;/b&gt;&lt;/div&gt;&lt;/font&gt;&lt;/b&gt;" link2="https://pinata.cloud/" id="9AQbZe1i3s5QTkBOKTHU-41">
          <mxCell style="shape=process;whiteSpace=wrap;html=1;backgroundOutline=1;" parent="WIyWlLk6GJQsqaUBKTNV-1" vertex="1">
            <mxGeometry x="382.5" y="-2060" width="175" height="140" as="geometry" />
          </mxCell>
        </UserObject>
        <mxCell id="9AQbZe1i3s5QTkBOKTHU-47" style="edgeStyle=orthogonalEdgeStyle;rounded=0;orthogonalLoop=1;jettySize=auto;html=1;exitX=1;exitY=0.5;exitDx=0;exitDy=0;entryX=0;entryY=0.5;entryDx=0;entryDy=0;" parent="WIyWlLk6GJQsqaUBKTNV-1" source="9AQbZe1i3s5QTkBOKTHU-44" target="9AQbZe1i3s5QTkBOKTHU-32" edge="1">
          <mxGeometry relative="1" as="geometry" />
        </mxCell>
        <mxCell id="9AQbZe1i3s5QTkBOKTHU-46" style="edgeStyle=orthogonalEdgeStyle;rounded=0;orthogonalLoop=1;jettySize=auto;html=1;exitX=1;exitY=0.5;exitDx=0;exitDy=0;entryX=0;entryY=0.5;entryDx=0;entryDy=0;" parent="WIyWlLk6GJQsqaUBKTNV-1" source="9AQbZe1i3s5QTkBOKTHU-45" target="9AQbZe1i3s5QTkBOKTHU-44" edge="1">
          <mxGeometry relative="1" as="geometry" />
        </mxCell>
        <UserObject label="&lt;b&gt;&lt;font style=&quot;font-size: 16px&quot;&gt;POST /register&lt;br&gt;&lt;/font&gt;&lt;/b&gt;" link2="https://pinata.cloud/" id="9AQbZe1i3s5QTkBOKTHU-45">
          <mxCell style="shape=process;whiteSpace=wrap;html=1;backgroundOutline=1;" parent="WIyWlLk6GJQsqaUBKTNV-1" vertex="1">
            <mxGeometry x="-1082.5" y="-2247" width="175" height="140" as="geometry" />
          </mxCell>
        </UserObject>
        <mxCell id="9AQbZe1i3s5QTkBOKTHU-50" style="edgeStyle=orthogonalEdgeStyle;rounded=0;orthogonalLoop=1;jettySize=auto;html=1;exitX=0.5;exitY=1;exitDx=0;exitDy=0;entryX=0.5;entryY=0;entryDx=0;entryDy=0;" parent="WIyWlLk6GJQsqaUBKTNV-1" source="9AQbZe1i3s5QTkBOKTHU-48" target="9AQbZe1i3s5QTkBOKTHU-41" edge="1">
          <mxGeometry relative="1" as="geometry" />
        </mxCell>
        <UserObject label="&lt;b&gt;&lt;font style=&quot;font-size: 16px&quot;&gt;check-payment:&lt;br&gt;&lt;/font&gt;&lt;/b&gt;&lt;b&gt;&lt;font style=&quot;font-size: 16px&quot;&gt;- it&#39;s first?&lt;br&gt;- it&#39;s a valid token?&lt;/font&gt;&lt;/b&gt;&lt;b&gt;&lt;font style=&quot;font-size: 16px&quot;&gt;&lt;br&gt;&lt;/font&gt;&lt;/b&gt;" link2="https://pinata.cloud/" id="9AQbZe1i3s5QTkBOKTHU-48">
          <mxCell style="shape=process;whiteSpace=wrap;html=1;backgroundOutline=1;" parent="WIyWlLk6GJQsqaUBKTNV-1" vertex="1">
            <mxGeometry x="382.5" y="-2245" width="175" height="140" as="geometry" />
          </mxCell>
        </UserObject>
        <mxCell id="9AQbZe1i3s5QTkBOKTHU-83" style="edgeStyle=orthogonalEdgeStyle;rounded=0;orthogonalLoop=1;jettySize=auto;html=1;exitX=1;exitY=0.5;exitDx=0;exitDy=0;entryX=0.5;entryY=0;entryDx=0;entryDy=0;dashed=1;startArrow=none;startFill=0;endArrow=classic;endFill=1;" parent="WIyWlLk6GJQsqaUBKTNV-1" source="9AQbZe1i3s5QTkBOKTHU-53" target="9AQbZe1i3s5QTkBOKTHU-42" edge="1">
          <mxGeometry relative="1" as="geometry" />
        </mxCell>
        <UserObject label="&lt;b&gt;&lt;font style=&quot;font-size: 16px&quot;&gt;generate-api-key:&lt;br&gt;- rate-limit based on token minting metadata&lt;br&gt;&lt;/font&gt;&lt;/b&gt;" link2="https://pinata.cloud/" id="9AQbZe1i3s5QTkBOKTHU-53">
          <mxCell style="shape=process;whiteSpace=wrap;html=1;backgroundOutline=1;" parent="WIyWlLk6GJQsqaUBKTNV-1" vertex="1">
            <mxGeometry x="390" y="-1270" width="175" height="140" as="geometry" />
          </mxCell>
        </UserObject>
        <mxCell id="9AQbZe1i3s5QTkBOKTHU-58" style="edgeStyle=orthogonalEdgeStyle;rounded=0;orthogonalLoop=1;jettySize=auto;html=1;exitX=0;exitY=0.5;exitDx=0;exitDy=0;entryX=1;entryY=0.5;entryDx=0;entryDy=0;dashed=1;startArrow=classic;startFill=1;" parent="WIyWlLk6GJQsqaUBKTNV-1" source="9AQbZe1i3s5QTkBOKTHU-56" target="9AQbZe1i3s5QTkBOKTHU-48" edge="1">
          <mxGeometry relative="1" as="geometry" />
        </mxCell>
        <mxCell id="9AQbZe1i3s5QTkBOKTHU-56" value="&lt;b&gt;&lt;font style=&quot;font-size: 16px&quot;&gt;cardano-graphql&lt;br&gt;&lt;/font&gt;&lt;/b&gt;" style="whiteSpace=wrap;html=1;aspect=fixed;" parent="WIyWlLk6GJQsqaUBKTNV-1" vertex="1">
          <mxGeometry x="855" y="-2251" width="150" height="150" as="geometry" />
        </mxCell>
        <mxCell id="9AQbZe1i3s5QTkBOKTHU-60" value="" style="group" parent="WIyWlLk6GJQsqaUBKTNV-1" vertex="1" connectable="0">
          <mxGeometry x="-505.62" y="-2431" width="350" height="180" as="geometry" />
        </mxCell>
        <mxCell id="9AQbZe1i3s5QTkBOKTHU-44" value="&lt;div&gt;&lt;b style=&quot;font-size: 16px&quot;&gt;{ &lt;br&gt;&quot;txId&quot;: &quot;abbacada...&quot;,&lt;br&gt;&lt;/b&gt;&lt;b style=&quot;font-size: 16px&quot;&gt;&quot;apiKey&quot;: &quot;clear-p4ssw0rd&quot;.&lt;br&gt;&lt;/b&gt;&lt;b style=&quot;font-size: 16px&quot;&gt;&quot;regOneTimePass&quot;: &quot;onlyKnownByConsumer&quot;&lt;br&gt;&amp;nbsp;}&lt;/b&gt;&lt;/div&gt;" style="shape=document;whiteSpace=wrap;html=1;boundedLbl=1;align=center;" parent="9AQbZe1i3s5QTkBOKTHU-60" vertex="1">
          <mxGeometry x="-70" y="30" width="420" height="150" as="geometry" />
        </mxCell>
        <mxCell id="9AQbZe1i3s5QTkBOKTHU-59" value="&lt;font style=&quot;font-size: 16px&quot;&gt;&lt;b&gt;registration-tx-request&lt;/b&gt;&lt;/font&gt;" style="text;html=1;align=center;verticalAlign=middle;resizable=0;points=[];autosize=1;" parent="9AQbZe1i3s5QTkBOKTHU-60" vertex="1">
          <mxGeometry x="25" width="190" height="20" as="geometry" />
        </mxCell>
        <mxCell id="9AQbZe1i3s5QTkBOKTHU-62" value="" style="group" parent="WIyWlLk6GJQsqaUBKTNV-1" vertex="1" connectable="0">
          <mxGeometry x="-575.62" y="-2107" width="390" height="180" as="geometry" />
        </mxCell>
        <mxCell id="9AQbZe1i3s5QTkBOKTHU-43" value="&lt;div&gt;&lt;b style=&quot;font-size: 16px&quot;&gt;{ &quot;txId&quot;: &quot;deadbeef...&quot; }&lt;/b&gt;&lt;/div&gt;" style="shape=document;whiteSpace=wrap;html=1;boundedLbl=1;align=center;" parent="9AQbZe1i3s5QTkBOKTHU-62" vertex="1">
          <mxGeometry y="30" width="390" height="150" as="geometry" />
        </mxCell>
        <mxCell id="9AQbZe1i3s5QTkBOKTHU-61" value="&lt;font style=&quot;font-size: 16px&quot;&gt;&lt;b&gt;token-delivery-tx-response&lt;/b&gt;&lt;/font&gt;" style="text;html=1;align=center;verticalAlign=middle;resizable=0;points=[];autosize=1;" parent="9AQbZe1i3s5QTkBOKTHU-62" vertex="1">
          <mxGeometry x="85" width="220" height="20" as="geometry" />
        </mxCell>
        <mxCell id="d_bFw-dIpOBwBTVsmZzO-3" value="&lt;font style=&quot;font-size: 16px&quot;&gt;&lt;b&gt;tx-metadata&lt;/b&gt;&lt;/font&gt;" style="text;html=1;align=center;verticalAlign=middle;resizable=0;points=[];autosize=1;" vertex="1" parent="9AQbZe1i3s5QTkBOKTHU-62">
          <mxGeometry x="140" y="145" width="110" height="20" as="geometry" />
        </mxCell>
        <mxCell id="9AQbZe1i3s5QTkBOKTHU-64" style="edgeStyle=orthogonalEdgeStyle;rounded=0;orthogonalLoop=1;jettySize=auto;html=1;exitX=0;exitY=0.5;exitDx=0;exitDy=0;dashed=1;startArrow=none;startFill=0;" parent="WIyWlLk6GJQsqaUBKTNV-1" source="9AQbZe1i3s5QTkBOKTHU-43" target="9AQbZe1i3s5QTkBOKTHU-45" edge="1">
          <mxGeometry relative="1" as="geometry" />
        </mxCell>
        <mxCell id="d_bFw-dIpOBwBTVsmZzO-0" value="&lt;span style=&quot;font-size: 16px&quot;&gt;&lt;b&gt;{&lt;br&gt;&quot;regOneTimePass&quot;: &quot;sha256...&quot;,&lt;br&gt;&lt;br&gt;}&lt;br&gt;&lt;/b&gt;&lt;/span&gt;" style="shape=document;whiteSpace=wrap;html=1;boundedLbl=1;align=center;" vertex="1" parent="WIyWlLk6GJQsqaUBKTNV-1">
          <mxGeometry x="-530" y="-2270" width="300" height="130" as="geometry" />
        </mxCell>
        <mxCell id="d_bFw-dIpOBwBTVsmZzO-1" value="&lt;font style=&quot;font-size: 16px&quot;&gt;&lt;b&gt;tx-metadata&lt;/b&gt;&lt;/font&gt;" style="text;html=1;align=center;verticalAlign=middle;resizable=0;points=[];autosize=1;" vertex="1" parent="WIyWlLk6GJQsqaUBKTNV-1">
          <mxGeometry x="-435" y="-2290" width="110" height="20" as="geometry" />
        </mxCell>
        <mxCell id="d_bFw-dIpOBwBTVsmZzO-2" value="&lt;span style=&quot;font-size: 16px&quot;&gt;&lt;b&gt;{&lt;br&gt;&quot;expiration&quot;: &quot;timestamp&quot;,&lt;br&gt;&quot;tier&quot;: &quot;assetName-rate-N&quot;&lt;br&gt;&quot;hashedApiKey&quot;: &quot;sha256...&quot;,&lt;br&gt;&quot;originalPaymentTxId&quot;:&amp;nbsp;&lt;br&gt;}&lt;br&gt;&lt;/b&gt;&lt;/span&gt;" style="shape=document;whiteSpace=wrap;html=1;boundedLbl=1;align=center;" vertex="1" parent="WIyWlLk6GJQsqaUBKTNV-1">
          <mxGeometry x="-525" y="-1940" width="300" height="130" as="geometry" />
        </mxCell>
        <mxCell id="d_bFw-dIpOBwBTVsmZzO-4" value="" style="group" vertex="1" connectable="0" parent="WIyWlLk6GJQsqaUBKTNV-1">
          <mxGeometry x="817" y="-1050" width="240" height="220" as="geometry" />
        </mxCell>
        <mxCell id="9AQbZe1i3s5QTkBOKTHU-82" value="" style="group" parent="d_bFw-dIpOBwBTVsmZzO-4" vertex="1" connectable="0">
          <mxGeometry x="20" width="220" height="220" as="geometry" />
        </mxCell>
        <mxCell id="9AQbZe1i3s5QTkBOKTHU-42" value="&lt;b&gt;&lt;font style=&quot;font-size: 16px&quot;&gt;kong&lt;br&gt;&amp;nbsp;(header-based rate limiter)&lt;/font&gt;&lt;/b&gt;" style="whiteSpace=wrap;html=1;aspect=fixed;" parent="9AQbZe1i3s5QTkBOKTHU-82" vertex="1">
          <mxGeometry width="150" height="150" as="geometry" />
        </mxCell>
        <mxCell id="9AQbZe1i3s5QTkBOKTHU-81" value="&lt;font style=&quot;font-size: 16px&quot;&gt;&lt;b&gt;postgres&lt;/b&gt;&lt;/font&gt;" style="shape=internalStorage;whiteSpace=wrap;html=1;backgroundOutline=1;" parent="9AQbZe1i3s5QTkBOKTHU-82" vertex="1">
          <mxGeometry x="100" y="110" width="120" height="110" as="geometry" />
        </mxCell>
        <mxCell id="9AQbZe1i3s5QTkBOKTHU-121" value="&lt;font style=&quot;font-size: 16px&quot;&gt;&lt;b&gt;redis&lt;/b&gt;&lt;/font&gt;" style="shape=internalStorage;whiteSpace=wrap;html=1;backgroundOutline=1;" parent="d_bFw-dIpOBwBTVsmZzO-4" vertex="1">
          <mxGeometry y="110" width="120" height="110" as="geometry" />
        </mxCell>
      </root>
    </mxGraphModel>
  </diagram>
</mxfile>
